<?xml version="1.0" encoding="UTF-8"?>
<svg width="100px" height="100px" viewBox="0 0 100 100" version="1.1" xmlns="http://www.w3.org/2000/svg" xmlns:xlink="http://www.w3.org/1999/xlink">
    <!-- Generator: Sketch 44.1 (41455) - http://www.bohemiancoding.com/sketch -->
    <title>logo/favicon</title>
    <desc>Created with Sketch.</desc>
    <defs></defs>
    <g id="site" stroke="none" stroke-width="1" fill="none" fill-rule="evenodd">
        <g id="logo/favicon">
            <polygon id="Path" fill="#B363D2" points="52 72 52 28 49 28 49 72"></polygon>
            <path d="M29.6173469,72 C26.879238,72 24.5166766,71.3011003 22.5295918,69.9032798 C20.5425071,68.5054593 19.3690494,66.7367354 19.0091837,64.5970549 L23.2336735,64.5970549 C23.6404782,65.7684128 24.4384294,66.7093896 25.627551,67.4200134 C26.8166726,68.1306372 28.2091757,68.4859438 29.805102,68.4859438 C32.0112355,68.4859438 33.7479528,67.9002736 35.0153061,66.7289157 C36.2826594,65.5575577 36.9163265,64.0191974 36.9163265,62.1137885 L36.9163265,58.1546185 L36.822449,58.1546185 C36.0244858,59.5290118 34.9136126,60.5949315 33.4897959,61.3524096 C32.0659793,62.1098878 30.4700769,62.4886212 28.7020408,62.4886212 C25.4945418,62.4886212 22.9090234,61.3211853 20.9454082,58.9862784 C18.9817929,56.6513716 18,53.5785554 18,49.7677376 C18,45.9100655 18.9857044,42.8177269 20.9571429,40.4906292 C22.9285813,38.1635314 25.5414803,37 28.7959184,37 C30.5796008,37 32.1872377,37.3748289 33.6188776,38.124498 C35.0505174,38.8741671 36.1887713,39.9439913 37.0336735,41.3340027 L37.1040816,41.3340027 L37.1040816,37.2342704 L41,37.2342704 L41,61.9732262 C41,64.9875206 39.9712688,67.4121952 37.9137755,69.2473226 C35.8562822,71.0824501 33.0908337,72 29.6173469,72 Z M29.4765306,58.8574297 C31.6983104,58.8574297 33.4937006,58.0179691 34.8627551,56.3390228 C36.2318096,54.6600764 36.9163265,52.4696699 36.9163265,49.7677376 C36.9163265,47.0501872 36.2318096,44.8480673 34.8627551,43.1613119 C33.4937006,41.4745565 31.6983104,40.6311914 29.4765306,40.6311914 C27.2703971,40.6311914 25.5023876,41.4628431 24.172449,43.1261714 C22.8425104,44.7894996 22.177551,47.0033329 22.177551,49.7677376 C22.177551,52.5165242 22.8425104,54.7186441 24.172449,56.3741633 C25.5023876,58.0296825 27.2703971,58.8574297 29.4765306,58.8574297 Z" id="Combined-Shape" fill="#1C1F33"></path>
            <path d="M61,63 L65.06,63 L65.06,48.5909695 C65.06,46.3908699 65.6744383,44.6284927 66.9033333,43.3037849 C68.1322284,41.979077 69.8044339,41.3167331 71.92,41.3167331 C73.9111211,41.3167331 75.4122172,41.8861165 76.4233333,43.0249004 C77.4344495,44.1636843 77.94,45.7323937 77.94,47.7310757 L77.94,63 L82,63 L82,47.0106242 C82,44.2217656 81.2105635,41.9752188 79.6316667,40.2709163 C78.0527699,38.5666139 75.8866804,37.7144754 73.1333333,37.7144754 C71.2044348,37.7144754 69.5866732,38.0746976 68.28,38.7951527 C66.9733268,39.5156079 65.931115,40.5885276 65.1533333,42.0139442 L65.06,42.0139442 L65.06,28 L61,28 L61,63 Z" id="Path" fill="#1C1F33"></path>
            <path d="M13.943662,72 C13.0798079,69.9693519 12.0939023,67.1793856 10.9859155,63.6300175 C9.87792873,60.0806493 9.32394366,55.3795135 9.32394366,49.5264689 C9.32394366,43.65636 9.90296761,38.9168301 11.0610329,35.3077371 C12.2190981,31.698644 13.198744,29.262756 14,28 L11.258216,28 C10.056332,30.0818409 8.87950498,32.7182311 7.72769953,35.9092496 C6.57589408,39.100268 6,43.6563598 6,49.5776614 C6,55.4818988 6.5821538,60.2470247 7.74647887,63.8731821 C8.91080394,67.4993394 10.0187741,70.2082517 11.0704225,72 L13.943662,72 Z" id="(grasp-|-how)" fill="#B363D2"></path>
            <path d="M93.943662,72 C93.0798079,69.9693519 92.0939023,67.1793856 90.9859155,63.6300175 C89.8779287,60.0806493 89.3239437,55.3795135 89.3239437,49.5264689 C89.3239437,43.65636 89.9029676,38.9168301 91.0610329,35.3077371 C92.2190981,31.698644 93.198744,29.262756 94,28 L91.258216,28 C90.056332,30.0818409 88.879505,32.7182311 87.7276995,35.9092496 C86.5758941,39.100268 86,43.6563598 86,49.5776614 C86,55.4818988 86.5821538,60.2470247 87.7464789,63.8731821 C88.9108039,67.4993394 90.0187741,70.2082517 91.0704225,72 L93.943662,72 Z" id="(grasp-|-how)" fill="#B363D2" transform="translate(90.000000, 50.000000) scale(-1, 1) translate(-90.000000, -50.000000) "></path>
        </g>
    </g>
</svg>