<?xml version="1.0" encoding="UTF-8"?>
<svg width="297px" height="106px" viewBox="0 0 297 106" version="1.1" xmlns="http://www.w3.org/2000/svg" xmlns:xlink="http://www.w3.org/1999/xlink">
    <!-- Generator: Sketch 44.1 (41455) - http://www.bohemiancoding.com/sketch -->
    <title>logo/grasp.how_inverse</title>
    <desc>Created with Sketch.</desc>
    <defs></defs>
    <g id="site" stroke="none" stroke-width="1" fill="none" fill-rule="evenodd">
        <g id="logo/grasp.how_inverse">
            <rect id="Rectangle" x="0" y="0" width="297" height="106"></rect>
            <path d="M29.9295775,75 C28.8497599,72.9693519 27.6173778,70.1793856 26.2323944,66.6300175 C24.8474109,63.0806493 24.1549296,58.3795135 24.1549296,52.5264689 C24.1549296,46.65636 24.8787095,41.9168301 26.3262911,38.3077371 C27.7738727,34.698644 28.99843,32.262756 30,31 L26.57277,31 C25.070415,33.0818409 23.5993812,35.7182311 22.1596244,38.9092496 C20.7198676,42.100268 20,46.6563598 20,52.5776614 C20,58.4818988 20.7276923,63.2470247 22.1830986,66.8731821 C23.6385049,70.4993394 25.0234676,73.2082517 26.3380282,75 L29.9295775,75 Z M162,75 L162,31 L159,31 L159,75 L162,75 Z M267.046948,75 L270.638498,75 C271.953058,73.2082517 273.341933,70.4993394 274.805164,66.8731821 C276.268395,63.2470247 277,58.4818988 277,52.5776614 C277,46.6563598 276.280132,42.100268 274.840376,38.9092496 C273.400619,35.7182311 271.929585,33.0818409 270.42723,31 L267,31 C268.017219,32.262756 269.241777,34.698644 270.673709,38.3077371 C272.105641,41.9168301 272.821596,46.65636 272.821596,52.5264689 C272.821596,58.3795135 272.129115,63.0806493 270.744131,66.6300175 C269.359148,70.1793856 268.126766,72.9693519 267.046948,75 Z" id="(grasp-|-how)" fill="#B363D2"></path>
            <path d="M48.6173469,75 C45.879238,75 43.5166766,74.3011003 41.5295918,72.9032798 C39.5425071,71.5054593 38.3690494,69.7367354 38.0091837,67.5970549 L42.2336735,67.5970549 C42.6404782,68.7684128 43.4384294,69.7093896 44.627551,70.4200134 C45.8166726,71.1306372 47.2091757,71.4859438 48.805102,71.4859438 C51.0112355,71.4859438 52.7479528,70.9002736 54.0153061,69.7289157 C55.2826594,68.5575577 55.9163265,67.0191974 55.9163265,65.1137885 L55.9163265,61.1546185 L55.822449,61.1546185 C55.0244858,62.5290118 53.9136126,63.5949315 52.4897959,64.3524096 C51.0659793,65.1098878 49.4700769,65.4886212 47.7020408,65.4886212 C44.4945418,65.4886212 41.9090234,64.3211853 39.9454082,61.9862784 C37.9817929,59.6513716 37,56.5785554 37,52.7677376 C37,48.9100655 37.9857044,45.8177269 39.9571429,43.4906292 C41.9285813,41.1635314 44.5414803,40 47.7959184,40 C49.5796008,40 51.1872377,40.3748289 52.6188776,41.124498 C54.0505174,41.8741671 55.1887713,42.9439913 56.0336735,44.3340027 L56.1040816,44.3340027 L56.1040816,40.2342704 L60,40.2342704 L60,64.9732262 C60,67.9875206 58.9712688,70.4121952 56.9137755,72.2473226 C54.8562822,74.0824501 52.0908337,75 48.6173469,75 Z M48.4765306,61.8574297 C50.6983104,61.8574297 52.4937006,61.0179691 53.8627551,59.3390228 C55.2318096,57.6600764 55.9163265,55.4696699 55.9163265,52.7677376 C55.9163265,50.0501872 55.2318096,47.8480673 53.8627551,46.1613119 C52.4937006,44.4745565 50.6983104,43.6311914 48.4765306,43.6311914 C46.2703971,43.6311914 44.5023876,44.4628431 43.172449,46.1261714 C41.8425104,47.7894996 41.177551,50.0033329 41.177551,52.7677376 C41.177551,55.5165242 41.8425104,57.7186441 43.172449,59.3741633 C44.5023876,61.0296825 46.2703971,61.8574297 48.4765306,61.8574297 Z" id="Combined-Shape" fill="#FFFFFF"></path>
            <path d="M65,66 L69.1676647,66 L69.1676647,50.0606618 C69.1676647,48.2444762 69.6746456,46.7788046 70.6886228,45.6636029 C71.7025999,44.5484013 73.0478958,43.9908088 74.7245509,43.9908088 C75.2355315,43.9908088 75.7025927,44.0147056 76.1257485,44.0625 C76.5489043,44.1102944 76.8403186,44.1660536 77,44.2297794 L77,40.1433824 C76.8243504,40.1115194 76.5848319,40.079657 76.2814371,40.0477941 C75.9780424,40.0159312 75.6427164,40 75.2754491,40 C73.7744436,40 72.4530995,40.3982803 71.3113772,41.1948529 C70.169655,41.9914256 69.4071875,43.0667824 69.0239521,44.4209559 L68.9281437,44.4209559 L68.9281437,40.2389706 L65,40.2389706 L65,66 Z" id="Path" fill="#FFFFFF"></path>
            <path d="M86.6863636,66 C84.0772597,66 81.9772807,65.3133038 80.3863636,63.9398907 C78.7954466,62.5664777 78,60.7510738 78,58.4936248 C78,53.994513 81.2136042,51.5476644 87.6409091,51.1530055 L94.8477273,50.726776 L94.8477273,48.5956284 C94.8477273,47.0012064 94.3386415,45.7817286 93.3204545,44.9371585 C92.3022676,44.0925884 90.8466004,43.6703097 88.9534091,43.6703097 C87.4579471,43.6703097 86.1971642,44.0215508 85.1710227,44.7240437 C84.1448812,45.4265366 83.5045467,46.3855434 83.25,47.6010929 L79.2647727,47.6010929 C79.3284094,45.438362 80.294877,43.6308512 82.1642045,42.1785064 C84.0335321,40.7261615 86.3124866,40 89.0011364,40 C92.0397879,40 94.4659,40.7458942 96.2795455,42.2377049 C98.0931909,43.7295157 99,45.7304064 99,48.2404372 L99,65.7632058 L95.0625,65.7632058 L95.0625,61.3351548 L94.9670455,61.3351548 C94.2352236,62.755927 93.1215984,63.8885811 91.6261364,64.7331512 C90.1306743,65.5777213 88.4840999,66 86.6863636,66 Z M87.5693182,62.424408 C89.6693287,62.424408 91.4073795,61.8205889 92.7835227,60.6129326 C94.159666,59.4052763 94.8477273,57.8858622 94.8477273,56.0546448 L94.8477273,53.9945355 L88.1181818,54.420765 C84.2045259,54.6575604 82.2477273,56.0230598 82.2477273,58.5173042 C82.2477273,59.701281 82.7289725,60.6484482 83.6914773,61.3588342 C84.6539821,62.0692203 85.9465828,62.424408 87.5693182,62.424408 Z" id="Combined-Shape" fill="#FFFFFF"></path>
            <path d="M103.711744,47.3473108 C103.711744,50.7444716 105.933944,53.0197451 110.37841,54.1731996 L114.862396,55.3345488 C116.317524,55.7137667 117.345588,56.1680314 117.946619,56.6973564 C118.54765,57.2266815 118.848161,57.9416546 118.848161,58.8422972 C118.848161,59.9957517 118.338083,60.9082312 117.317912,61.579763 C116.297741,62.2512948 114.917763,62.5870556 113.177936,62.5870556 C111.438109,62.5870556 110.054177,62.2433945 109.026097,61.556062 C107.998018,60.8687295 107.373271,59.8772474 107.151839,58.5815861 L103,58.5815861 C103.205616,60.7936908 104.217864,62.5830986 106.036773,63.9498633 C107.855683,65.3166279 110.141149,66 112.893238,66 C115.850944,66 118.274803,65.3047775 120.164887,63.9143118 C122.054972,62.523846 123,60.7383883 123,58.5578851 C123,56.6933969 122.47806,55.2516004 121.434164,54.2324521 C120.390268,53.2133039 118.571385,52.379827 115.977461,51.7319964 L112.086595,50.7602552 C110.615651,50.396838 109.528276,49.9188726 108.824437,49.3263446 C108.120598,48.7338165 107.768683,48.0030429 107.768683,47.1340018 C107.768683,46.0121488 108.251083,45.1115197 109.215896,44.4320875 C110.180709,43.7526554 111.453926,43.4129444 113.035587,43.4129444 C114.601431,43.4129444 115.874649,43.7605556 116.855279,44.4557885 C117.835908,45.1510214 118.389481,46.099052 118.516014,47.2999088 L122.478055,47.2999088 C122.398972,45.1984094 121.477668,43.4564031 119.714116,42.0738377 C117.950565,40.6912723 115.77186,40 113.177936,40 C110.41003,40 108.140381,40.6833721 106.368921,42.0501367 C104.59746,43.4169014 103.711744,45.1826084 103.711744,47.3473108 Z" id="Path" fill="#FFFFFF"></path>
            <path d="M138.157143,40 C141.380288,40 143.993187,41.2166085 145.995918,43.6498619 C147.998649,46.0831153 149,49.2898051 149,53.2700276 C149,57.2502501 148.006473,60.45694 146.019388,62.8901934 C144.032303,65.3234468 141.442873,66.5400552 138.25102,66.5400552 C136.451692,66.5400552 134.855789,66.1492903 133.463265,65.3677486 C132.070741,64.586207 130.975514,63.4864251 130.177551,62.0683702 L130.083673,62.0683702 L130.083673,75 L126,75 L126,40.2417127 L129.872449,40.2417127 L129.872449,44.4716851 L129.966327,44.4716851 C130.701704,43.1180872 131.812578,42.0344194 133.29898,41.2206492 C134.785382,40.406879 136.404753,40 138.157143,40 Z M137.406122,62.7935083 C139.643549,62.7935083 141.438939,61.9273797 142.792347,60.1950967 C144.145755,58.4628136 144.822449,56.1544804 144.822449,53.2700276 C144.822449,50.3855749 144.145755,48.0772416 142.792347,46.3449586 C141.438939,44.6126755 139.643549,43.746547 137.406122,43.746547 C135.231282,43.746547 133.463272,44.624761 132.102041,46.3812155 C130.74081,48.1376699 130.060204,50.4339177 130.060204,53.2700276 C130.060204,56.1061376 130.74081,58.4023853 132.102041,60.1588398 C133.463272,61.9152942 135.231282,62.7935083 137.406122,62.7935083 Z" id="Combined-Shape" fill="#FFFFFF"></path>
            <path d="M175,66 L179.06,66 L179.06,51.5909695 C179.06,49.3908699 179.674438,46.6284927 180.903333,45.3037849 C182.132228,43.979077 183.804434,43.3167331 185.92,43.3167331 C187.911121,43.3167331 189.412217,43.8861165 190.423333,45.0249004 C191.434449,46.1636843 191.94,48.7323937 191.94,50.7310757 L191.94,66 L196,66 L196,50.0106242 C196,47.2217656 195.210563,43.9752188 193.631667,42.2709163 C192.05277,40.5666139 189.88668,39.7144754 187.133333,39.7144754 C185.204435,39.7144754 183.586673,40.0746976 182.28,40.7951527 C180.973327,41.5156079 179.931115,42.5885276 179.153333,44.0139442 L179.06,44.0139442 L179.06,31 L175,31 L175,66 Z" id="Path" fill="#FFFFFF"></path>
            <path d="M211.5,66 C207.998306,66 205.206248,64.8199875 203.123742,62.4599271 C201.041237,60.0998668 200,56.9465893 200,53 C200,49.0376244 201.041237,45.8804003 203.123742,43.5282332 C205.206248,41.176066 207.998306,40 211.5,40 C215.001694,40 217.793752,41.176066 219.876258,43.5282332 C221.958763,45.8804003 223,49.0376244 223,53 C223,56.9465893 221.958763,60.0998668 219.876258,62.4599271 C217.793752,64.8199875 215.001694,66 211.5,66 Z M211.5,62.3296903 C213.829321,62.3296903 215.645701,61.5048656 216.949195,59.8551913 C218.252689,58.2055169 218.904427,55.920476 218.904427,53 C218.904427,50.0637376 218.252689,47.7747502 216.949195,46.132969 C215.645701,44.4911879 213.829321,43.6703097 211.5,43.6703097 C209.170679,43.6703097 207.354299,44.4951344 206.050805,46.1448087 C204.747311,47.7944831 204.095573,50.079524 204.095573,53 C204.095573,55.920476 204.751167,58.2055169 206.062374,59.8551913 C207.373581,61.5048656 209.186105,62.3296903 211.5,62.3296903 Z" id="Combined-Shape" fill="#FFFFFF"></path>
            <path d="M260,40 L255.972452,40 L250.844353,61.2486085 L250.750689,61.2486085 L244.966942,40 L241.033058,40 L235.249311,61.2486085 L235.155647,61.2486085 L230.027548,40 L226,40 L233.071625,66 L237.192837,66 L242.953168,45.7884972 L243.046832,45.7884972 L248.807163,66 L252.928375,66 L253.642562,63.3710575 C254.118689,61.6184204 254.707985,59.4517754 255.410468,56.8710575 L257.517906,49.1289425 C258.220389,46.5482246 258.809685,44.3815796 259.285813,42.6289425 L260,40 Z" id="Path" fill="#FFFFFF"></path>
        </g>
    </g>
</svg>