<?xml version="1.0" encoding="UTF-8"?>
<svg width="297px" height="106px" viewBox="0 0 297 106" version="1.1" xmlns="http://www.w3.org/2000/svg" xmlns:xlink="http://www.w3.org/1999/xlink">
    <!-- Generator: Sketch 44.1 (41455) - http://www.bohemiancoding.com/sketch -->
    <title>logo/grasp.how_white</title>
    <desc>Created with Sketch.</desc>
    <defs></defs>
    <g id="site" stroke="none" stroke-width="1" fill="none" fill-rule="evenodd">
        <g id="logo/grasp.how_white">
            <rect id="Rectangle" x="0" y="0" width="297" height="106"></rect>
            <path d="M28.943662,75 C28.0798079,72.9693519 27.0939023,70.1793856 25.9859155,66.6300175 C24.8779287,63.0806493 24.3239437,58.3795135 24.3239437,52.5264689 C24.3239437,46.65636 24.9029676,41.9168301 26.0610329,38.3077371 C27.2190981,34.698644 28.198744,32.262756 29,31 L26.258216,31 C25.056332,33.0818409 23.879505,35.7182311 22.7276995,38.9092496 C21.5758941,42.100268 21,46.6563598 21,52.5776614 C21,58.4818988 21.5821538,63.2470247 22.7464789,66.8731821 C23.9108039,70.4993394 25.0187741,73.2082517 26.0704225,75 L28.943662,75 Z M162,75 L162,31 L160,31 L160,75 L162,75 Z M268.037559,75 L270.910798,75 C271.962447,73.2082517 273.073547,70.4993394 274.244131,66.8731821 C275.414716,63.2470247 276,58.4818988 276,52.5776614 C276,46.6563598 275.424106,42.100268 274.2723,38.9092496 C273.120495,35.7182311 271.943668,33.0818409 270.741784,31 L268,31 C268.813776,32.262756 269.793422,34.698644 270.938967,38.3077371 C272.084513,41.9168301 272.657277,46.65636 272.657277,52.5264689 C272.657277,58.3795135 272.103292,63.0806493 270.995305,66.6300175 C269.887318,70.1793856 268.901413,72.9693519 268.037559,75 Z" id="(grasp-|-how)" fill="#FFFFFF"></path>
            <path d="M49.6173469,75 C46.879238,75 44.5166766,74.3011003 42.5295918,72.9032798 C40.5425071,71.5054593 39.3690494,69.7367354 39.0091837,67.5970549 L43.2336735,67.5970549 C43.6404782,68.7684128 44.4384294,69.7093896 45.627551,70.4200134 C46.8166726,71.1306372 48.2091757,71.4859438 49.805102,71.4859438 C52.0112355,71.4859438 53.7479528,70.9002736 55.0153061,69.7289157 C56.2826594,68.5575577 56.9163265,67.0191974 56.9163265,65.1137885 L56.9163265,61.1546185 L56.822449,61.1546185 C56.0244858,62.5290118 54.9136126,63.5949315 53.4897959,64.3524096 C52.0659793,65.1098878 50.4700769,65.4886212 48.7020408,65.4886212 C45.4945418,65.4886212 42.9090234,64.3211853 40.9454082,61.9862784 C38.9817929,59.6513716 38,56.5785554 38,52.7677376 C38,48.9100655 38.9857044,45.8177269 40.9571429,43.4906292 C42.9285813,41.1635314 45.5414803,40 48.7959184,40 C50.5796008,40 52.1872377,40.3748289 53.6188776,41.124498 C55.0505174,41.8741671 56.1887713,42.9439913 57.0336735,44.3340027 L57.1040816,44.3340027 L57.1040816,40.2342704 L61,40.2342704 L61,64.9732262 C61,67.9875206 59.9712688,70.4121952 57.9137755,72.2473226 C55.8562822,74.0824501 53.0908337,75 49.6173469,75 Z M49.4765306,61.8574297 C51.6983104,61.8574297 53.4937006,61.0179691 54.8627551,59.3390228 C56.2318096,57.6600764 56.9163265,55.4696699 56.9163265,52.7677376 C56.9163265,50.0501872 56.2318096,47.8480673 54.8627551,46.1613119 C53.4937006,44.4745565 51.6983104,43.6311914 49.4765306,43.6311914 C47.2703971,43.6311914 45.5023876,44.4628431 44.172449,46.1261714 C42.8425104,47.7894996 42.177551,50.0033329 42.177551,52.7677376 C42.177551,55.5165242 42.8425104,57.7186441 44.172449,59.3741633 C45.5023876,61.0296825 47.2703971,61.8574297 49.4765306,61.8574297 Z" id="Combined-Shape" fill="#FFFFFF"></path>
            <path d="M66,66 L70.1676647,66 L70.1676647,50.0606618 C70.1676647,48.2444762 70.6746456,46.7788046 71.6886228,45.6636029 C72.7025999,44.5484013 74.0478958,43.9908088 75.7245509,43.9908088 C76.2355315,43.9908088 76.7025927,44.0147056 77.1257485,44.0625 C77.5489043,44.1102944 77.8403186,44.1660536 78,44.2297794 L78,40.1433824 C77.8243504,40.1115194 77.5848319,40.079657 77.2814371,40.0477941 C76.9780424,40.0159312 76.6427164,40 76.2754491,40 C74.7744436,40 73.4530995,40.3982803 72.3113772,41.1948529 C71.169655,41.9914256 70.4071875,43.0667824 70.0239521,44.4209559 L69.9281437,44.4209559 L69.9281437,40.2389706 L66,40.2389706 L66,66 Z" id="Path" fill="#FFFFFF"></path>
            <path d="M87.6863636,66 C85.0772597,66 82.9772807,65.3133038 81.3863636,63.9398907 C79.7954466,62.5664777 79,60.7510738 79,58.4936248 C79,53.994513 82.2136042,51.5476644 88.6409091,51.1530055 L95.8477273,50.726776 L95.8477273,48.5956284 C95.8477273,47.0012064 95.3386415,45.7817286 94.3204545,44.9371585 C93.3022676,44.0925884 91.8466004,43.6703097 89.9534091,43.6703097 C88.4579471,43.6703097 87.1971642,44.0215508 86.1710227,44.7240437 C85.1448812,45.4265366 84.5045467,46.3855434 84.25,47.6010929 L80.2647727,47.6010929 C80.3284094,45.438362 81.294877,43.6308512 83.1642045,42.1785064 C85.0335321,40.7261615 87.3124866,40 90.0011364,40 C93.0397879,40 95.4659,40.7458942 97.2795455,42.2377049 C99.0931909,43.7295157 100,45.7304064 100,48.2404372 L100,65.7632058 L96.0625,65.7632058 L96.0625,61.3351548 L95.9670455,61.3351548 C95.2352236,62.755927 94.1215984,63.8885811 92.6261364,64.7331512 C91.1306743,65.5777213 89.4840999,66 87.6863636,66 Z M88.5693182,62.424408 C90.6693287,62.424408 92.4073795,61.8205889 93.7835227,60.6129326 C95.159666,59.4052763 95.8477273,57.8858622 95.8477273,56.0546448 L95.8477273,53.9945355 L89.1181818,54.420765 C85.2045259,54.6575604 83.2477273,56.0230598 83.2477273,58.5173042 C83.2477273,59.701281 83.7289725,60.6484482 84.6914773,61.3588342 C85.6539821,62.0692203 86.9465828,62.424408 88.5693182,62.424408 Z" id="Combined-Shape" fill="#FFFFFF"></path>
            <path d="M104.711744,47.3473108 C104.711744,50.7444716 106.933944,53.0197451 111.37841,54.1731996 L115.862396,55.3345488 C117.317524,55.7137667 118.345588,56.1680314 118.946619,56.6973564 C119.54765,57.2266815 119.848161,57.9416546 119.848161,58.8422972 C119.848161,59.9957517 119.338083,60.9082312 118.317912,61.579763 C117.297741,62.2512948 115.917763,62.5870556 114.177936,62.5870556 C112.438109,62.5870556 111.054177,62.2433945 110.026097,61.556062 C108.998018,60.8687295 108.373271,59.8772474 108.151839,58.5815861 L104,58.5815861 C104.205616,60.7936908 105.217864,62.5830986 107.036773,63.9498633 C108.855683,65.3166279 111.141149,66 113.893238,66 C116.850944,66 119.274803,65.3047775 121.164887,63.9143118 C123.054972,62.523846 124,60.7383883 124,58.5578851 C124,56.6933969 123.47806,55.2516004 122.434164,54.2324521 C121.390268,53.2133039 119.571385,52.379827 116.977461,51.7319964 L113.086595,50.7602552 C111.615651,50.396838 110.528276,49.9188726 109.824437,49.3263446 C109.120598,48.7338165 108.768683,48.0030429 108.768683,47.1340018 C108.768683,46.0121488 109.251083,45.1115197 110.215896,44.4320875 C111.180709,43.7526554 112.453926,43.4129444 114.035587,43.4129444 C115.601431,43.4129444 116.874649,43.7605556 117.855279,44.4557885 C118.835908,45.1510214 119.389481,46.099052 119.516014,47.2999088 L123.478055,47.2999088 C123.398972,45.1984094 122.477668,43.4564031 120.714116,42.0738377 C118.950565,40.6912723 116.77186,40 114.177936,40 C111.41003,40 109.140381,40.6833721 107.368921,42.0501367 C105.59746,43.4169014 104.711744,45.1826084 104.711744,47.3473108 Z" id="Path" fill="#FFFFFF"></path>
            <path d="M139.157143,40 C142.380288,40 144.993187,41.2166085 146.995918,43.6498619 C148.998649,46.0831153 150,49.2898051 150,53.2700276 C150,57.2502501 149.006473,60.45694 147.019388,62.8901934 C145.032303,65.3234468 142.442873,66.5400552 139.25102,66.5400552 C137.451692,66.5400552 135.855789,66.1492903 134.463265,65.3677486 C133.070741,64.586207 131.975514,63.4864251 131.177551,62.0683702 L131.083673,62.0683702 L131.083673,75 L127,75 L127,40.2417127 L130.872449,40.2417127 L130.872449,44.4716851 L130.966327,44.4716851 C131.701704,43.1180872 132.812578,42.0344194 134.29898,41.2206492 C135.785382,40.406879 137.404753,40 139.157143,40 Z M138.406122,62.7935083 C140.643549,62.7935083 142.438939,61.9273797 143.792347,60.1950967 C145.145755,58.4628136 145.822449,56.1544804 145.822449,53.2700276 C145.822449,50.3855749 145.145755,48.0772416 143.792347,46.3449586 C142.438939,44.6126755 140.643549,43.746547 138.406122,43.746547 C136.231282,43.746547 134.463272,44.624761 133.102041,46.3812155 C131.74081,48.1376699 131.060204,50.4339177 131.060204,53.2700276 C131.060204,56.1061376 131.74081,58.4023853 133.102041,60.1588398 C134.463272,61.9152942 136.231282,62.7935083 138.406122,62.7935083 Z" id="Combined-Shape" fill="#FFFFFF"></path>
            <path d="M176,66 L180.06,66 L180.06,51.5909695 C180.06,49.3908699 180.674438,46.6284927 181.903333,45.3037849 C183.132228,43.979077 184.804434,43.3167331 186.92,43.3167331 C188.911121,43.3167331 190.412217,43.8861165 191.423333,45.0249004 C192.434449,46.1636843 192.94,48.7323937 192.94,50.7310757 L192.94,66 L197,66 L197,50.0106242 C197,47.2217656 196.210563,43.9752188 194.631667,42.2709163 C193.05277,40.5666139 190.88668,39.7144754 188.133333,39.7144754 C186.204435,39.7144754 184.586673,40.0746976 183.28,40.7951527 C181.973327,41.5156079 180.931115,42.5885276 180.153333,44.0139442 L180.06,44.0139442 L180.06,31 L176,31 L176,66 Z" id="Path" fill="#FFFFFF"></path>
            <path d="M212.5,66 C208.998306,66 206.206248,64.8199875 204.123742,62.4599271 C202.041237,60.0998668 201,56.9465893 201,53 C201,49.0376244 202.041237,45.8804003 204.123742,43.5282332 C206.206248,41.176066 208.998306,40 212.5,40 C216.001694,40 218.793752,41.176066 220.876258,43.5282332 C222.958763,45.8804003 224,49.0376244 224,53 C224,56.9465893 222.958763,60.0998668 220.876258,62.4599271 C218.793752,64.8199875 216.001694,66 212.5,66 Z M212.5,62.3296903 C214.829321,62.3296903 216.645701,61.5048656 217.949195,59.8551913 C219.252689,58.2055169 219.904427,55.920476 219.904427,53 C219.904427,50.0637376 219.252689,47.7747502 217.949195,46.132969 C216.645701,44.4911879 214.829321,43.6703097 212.5,43.6703097 C210.170679,43.6703097 208.354299,44.4951344 207.050805,46.1448087 C205.747311,47.7944831 205.095573,50.079524 205.095573,53 C205.095573,55.920476 205.751167,58.2055169 207.062374,59.8551913 C208.373581,61.5048656 210.186105,62.3296903 212.5,62.3296903 Z" id="Combined-Shape" fill="#FFFFFF"></path>
            <path d="M261,40 L256.972452,40 L251.844353,61.2486085 L251.750689,61.2486085 L245.966942,40 L242.033058,40 L236.249311,61.2486085 L236.155647,61.2486085 L231.027548,40 L227,40 L234.071625,66 L238.192837,66 L243.953168,45.7884972 L244.046832,45.7884972 L249.807163,66 L253.928375,66 L254.642562,63.3710575 C255.118689,61.6184204 255.707985,59.4517754 256.410468,56.8710575 L258.517906,49.1289425 C259.220389,46.5482246 259.809685,44.3815796 260.285813,42.6289425 L261,40 Z" id="Path" fill="#FFFFFF"></path>
        </g>
    </g>
</svg>