<?xml version="1.0" encoding="UTF-8"?>
<svg width="297px" height="106px" viewBox="0 0 297 106" version="1.1" xmlns="http://www.w3.org/2000/svg" xmlns:xlink="http://www.w3.org/1999/xlink">
    <!-- Generator: Sketch 44.1 (41455) - http://www.bohemiancoding.com/sketch -->
    <title>logo/grasp.how_black</title>
    <desc>Created with Sketch.</desc>
    <defs></defs>
    <g id="site" stroke="none" stroke-width="1" fill="none" fill-rule="evenodd">
        <g id="logo/grasp.how_black">
            <rect id="Rectangle" x="0" y="0" width="297" height="106"></rect>
            <path d="M28.943662,75 C28.0798079,72.9693519 27.0939023,70.1793856 25.9859155,66.6300175 C24.8779287,63.0806493 24.3239437,58.3795135 24.3239437,52.5264689 C24.3239437,46.65636 24.9029676,41.9168301 26.0610329,38.3077371 C27.2190981,34.698644 28.198744,32.262756 29,31 L26.258216,31 C25.056332,33.0818409 23.879505,35.7182311 22.7276995,38.9092496 C21.5758941,42.100268 21,46.6563598 21,52.5776614 C21,58.4818988 21.5821538,63.2470247 22.7464789,66.8731821 C23.9108039,70.4993394 25.0187741,73.2082517 26.0704225,75 L28.943662,75 Z M161,75 L161,31 L159,31 L159,75 L161,75 Z M268.037559,75 L270.910798,75 C271.962447,73.2082517 273.073547,70.4993394 274.244131,66.8731821 C275.414716,63.2470247 276,58.4818988 276,52.5776614 C276,46.6563598 275.424106,42.100268 274.2723,38.9092496 C273.120495,35.7182311 271.943668,33.0818409 270.741784,31 L268,31 C268.813776,32.262756 269.793422,34.698644 270.938967,38.3077371 C272.084513,41.9168301 272.657277,46.65636 272.657277,52.5264689 C272.657277,58.3795135 272.103292,63.0806493 270.995305,66.6300175 C269.887318,70.1793856 268.901413,72.9693519 268.037559,75 Z" id="(grasp-|-how)" fill="#1C1F33"></path>
            <path d="M47.6173469,75 C44.879238,75 42.5166766,74.3011003 40.5295918,72.9032798 C38.5425071,71.5054593 37.3690494,69.7367354 37.0091837,67.5970549 L41.2336735,67.5970549 C41.6404782,68.7684128 42.4384294,69.7093896 43.627551,70.4200134 C44.8166726,71.1306372 46.2091757,71.4859438 47.805102,71.4859438 C50.0112355,71.4859438 51.7479528,70.9002736 53.0153061,69.7289157 C54.2826594,68.5575577 54.9163265,67.0191974 54.9163265,65.1137885 L54.9163265,61.1546185 L54.822449,61.1546185 C54.0244858,62.5290118 52.9136126,63.5949315 51.4897959,64.3524096 C50.0659793,65.1098878 48.4700769,65.4886212 46.7020408,65.4886212 C43.4945418,65.4886212 40.9090234,64.3211853 38.9454082,61.9862784 C36.9817929,59.6513716 36,56.5785554 36,52.7677376 C36,48.9100655 36.9857044,45.8177269 38.9571429,43.4906292 C40.9285813,41.1635314 43.5414803,40 46.7959184,40 C48.5796008,40 50.1872377,40.3748289 51.6188776,41.124498 C53.0505174,41.8741671 54.1887713,42.9439913 55.0336735,44.3340027 L55.1040816,44.3340027 L55.1040816,40.2342704 L59,40.2342704 L59,64.9732262 C59,67.9875206 57.9712688,70.4121952 55.9137755,72.2473226 C53.8562822,74.0824501 51.0908337,75 47.6173469,75 Z M47.4765306,61.8574297 C49.6983104,61.8574297 51.4937006,61.0179691 52.8627551,59.3390228 C54.2318096,57.6600764 54.9163265,55.4696699 54.9163265,52.7677376 C54.9163265,50.0501872 54.2318096,47.8480673 52.8627551,46.1613119 C51.4937006,44.4745565 49.6983104,43.6311914 47.4765306,43.6311914 C45.2703971,43.6311914 43.5023876,44.4628431 42.172449,46.1261714 C40.8425104,47.7894996 40.177551,50.0033329 40.177551,52.7677376 C40.177551,55.5165242 40.8425104,57.7186441 42.172449,59.3741633 C43.5023876,61.0296825 45.2703971,61.8574297 47.4765306,61.8574297 Z" id="Combined-Shape" fill="#1C1F33"></path>
            <path d="M64,66 L68.1676647,66 L68.1676647,50.0606618 C68.1676647,48.2444762 68.6746456,46.7788046 69.6886228,45.6636029 C70.7025999,44.5484013 72.0478958,43.9908088 73.7245509,43.9908088 C74.2355315,43.9908088 74.7025927,44.0147056 75.1257485,44.0625 C75.5489043,44.1102944 75.8403186,44.1660536 76,44.2297794 L76,40.1433824 C75.8243504,40.1115194 75.5848319,40.079657 75.2814371,40.0477941 C74.9780424,40.0159312 74.6427164,40 74.2754491,40 C72.7744436,40 71.4530995,40.3982803 70.3113772,41.1948529 C69.169655,41.9914256 68.4071875,43.0667824 68.0239521,44.4209559 L67.9281437,44.4209559 L67.9281437,40.2389706 L64,40.2389706 L64,66 Z" id="Path" fill="#1C1F33"></path>
            <path d="M85.6863636,66 C83.0772597,66 80.9772807,65.3133038 79.3863636,63.9398907 C77.7954466,62.5664777 77,60.7510738 77,58.4936248 C77,53.994513 80.2136042,51.5476644 86.6409091,51.1530055 L93.8477273,50.726776 L93.8477273,48.5956284 C93.8477273,47.0012064 93.3386415,45.7817286 92.3204545,44.9371585 C91.3022676,44.0925884 89.8466004,43.6703097 87.9534091,43.6703097 C86.4579471,43.6703097 85.1971642,44.0215508 84.1710227,44.7240437 C83.1448812,45.4265366 82.5045467,46.3855434 82.25,47.6010929 L78.2647727,47.6010929 C78.3284094,45.438362 79.294877,43.6308512 81.1642045,42.1785064 C83.0335321,40.7261615 85.3124866,40 88.0011364,40 C91.0397879,40 93.4659,40.7458942 95.2795455,42.2377049 C97.0931909,43.7295157 98,45.7304064 98,48.2404372 L98,65.7632058 L94.0625,65.7632058 L94.0625,61.3351548 L93.9670455,61.3351548 C93.2352236,62.755927 92.1215984,63.8885811 90.6261364,64.7331512 C89.1306743,65.5777213 87.4840999,66 85.6863636,66 Z M86.5693182,62.424408 C88.6693287,62.424408 90.4073795,61.8205889 91.7835227,60.6129326 C93.159666,59.4052763 93.8477273,57.8858622 93.8477273,56.0546448 L93.8477273,53.9945355 L87.1181818,54.420765 C83.2045259,54.6575604 81.2477273,56.0230598 81.2477273,58.5173042 C81.2477273,59.701281 81.7289725,60.6484482 82.6914773,61.3588342 C83.6539821,62.0692203 84.9465828,62.424408 86.5693182,62.424408 Z" id="Combined-Shape" fill="#1C1F33"></path>
            <path d="M102.711744,47.3473108 C102.711744,50.7444716 104.933944,53.0197451 109.37841,54.1731996 L113.862396,55.3345488 C115.317524,55.7137667 116.345588,56.1680314 116.946619,56.6973564 C117.54765,57.2266815 117.848161,57.9416546 117.848161,58.8422972 C117.848161,59.9957517 117.338083,60.9082312 116.317912,61.579763 C115.297741,62.2512948 113.917763,62.5870556 112.177936,62.5870556 C110.438109,62.5870556 109.054177,62.2433945 108.026097,61.556062 C106.998018,60.8687295 106.373271,59.8772474 106.151839,58.5815861 L102,58.5815861 C102.205616,60.7936908 103.217864,62.5830986 105.036773,63.9498633 C106.855683,65.3166279 109.141149,66 111.893238,66 C114.850944,66 117.274803,65.3047775 119.164887,63.9143118 C121.054972,62.523846 122,60.7383883 122,58.5578851 C122,56.6933969 121.47806,55.2516004 120.434164,54.2324521 C119.390268,53.2133039 117.571385,52.379827 114.977461,51.7319964 L111.086595,50.7602552 C109.615651,50.396838 108.528276,49.9188726 107.824437,49.3263446 C107.120598,48.7338165 106.768683,48.0030429 106.768683,47.1340018 C106.768683,46.0121488 107.251083,45.1115197 108.215896,44.4320875 C109.180709,43.7526554 110.453926,43.4129444 112.035587,43.4129444 C113.601431,43.4129444 114.874649,43.7605556 115.855279,44.4557885 C116.835908,45.1510214 117.389481,46.099052 117.516014,47.2999088 L121.478055,47.2999088 C121.398972,45.1984094 120.477668,43.4564031 118.714116,42.0738377 C116.950565,40.6912723 114.77186,40 112.177936,40 C109.41003,40 107.140381,40.6833721 105.368921,42.0501367 C103.59746,43.4169014 102.711744,45.1826084 102.711744,47.3473108 Z" id="Path" fill="#1C1F33"></path>
            <path d="M137.157143,40 C140.380288,40 142.993187,41.2166085 144.995918,43.6498619 C146.998649,46.0831153 148,49.2898051 148,53.2700276 C148,57.2502501 147.006473,60.45694 145.019388,62.8901934 C143.032303,65.3234468 140.442873,66.5400552 137.25102,66.5400552 C135.451692,66.5400552 133.855789,66.1492903 132.463265,65.3677486 C131.070741,64.586207 129.975514,63.4864251 129.177551,62.0683702 L129.083673,62.0683702 L129.083673,75 L125,75 L125,40.2417127 L128.872449,40.2417127 L128.872449,44.4716851 L128.966327,44.4716851 C129.701704,43.1180872 130.812578,42.0344194 132.29898,41.2206492 C133.785382,40.406879 135.404753,40 137.157143,40 Z M136.406122,62.7935083 C138.643549,62.7935083 140.438939,61.9273797 141.792347,60.1950967 C143.145755,58.4628136 143.822449,56.1544804 143.822449,53.2700276 C143.822449,50.3855749 143.145755,48.0772416 141.792347,46.3449586 C140.438939,44.6126755 138.643549,43.746547 136.406122,43.746547 C134.231282,43.746547 132.463272,44.624761 131.102041,46.3812155 C129.74081,48.1376699 129.060204,50.4339177 129.060204,53.2700276 C129.060204,56.1061376 129.74081,58.4023853 131.102041,60.1588398 C132.463272,61.9152942 134.231282,62.7935083 136.406122,62.7935083 Z" id="Combined-Shape" fill="#1C1F33"></path>
            <path d="M174,66 L178.06,66 L178.06,51.5909695 C178.06,49.3908699 178.674438,46.6284927 179.903333,45.3037849 C181.132228,43.979077 182.804434,43.3167331 184.92,43.3167331 C186.911121,43.3167331 188.412217,43.8861165 189.423333,45.0249004 C190.434449,46.1636843 190.94,48.7323937 190.94,50.7310757 L190.94,66 L195,66 L195,50.0106242 C195,47.2217656 194.210563,43.9752188 192.631667,42.2709163 C191.05277,40.5666139 188.88668,39.7144754 186.133333,39.7144754 C184.204435,39.7144754 182.586673,40.0746976 181.28,40.7951527 C179.973327,41.5156079 178.931115,42.5885276 178.153333,44.0139442 L178.06,44.0139442 L178.06,31 L174,31 L174,66 Z" id="Path" fill="#1C1F33"></path>
            <path d="M210.5,66 C206.998306,66 204.206248,64.8199875 202.123742,62.4599271 C200.041237,60.0998668 199,56.9465893 199,53 C199,49.0376244 200.041237,45.8804003 202.123742,43.5282332 C204.206248,41.176066 206.998306,40 210.5,40 C214.001694,40 216.793752,41.176066 218.876258,43.5282332 C220.958763,45.8804003 222,49.0376244 222,53 C222,56.9465893 220.958763,60.0998668 218.876258,62.4599271 C216.793752,64.8199875 214.001694,66 210.5,66 Z M210.5,62.3296903 C212.829321,62.3296903 214.645701,61.5048656 215.949195,59.8551913 C217.252689,58.2055169 217.904427,55.920476 217.904427,53 C217.904427,50.0637376 217.252689,47.7747502 215.949195,46.132969 C214.645701,44.4911879 212.829321,43.6703097 210.5,43.6703097 C208.170679,43.6703097 206.354299,44.4951344 205.050805,46.1448087 C203.747311,47.7944831 203.095573,50.079524 203.095573,53 C203.095573,55.920476 203.751167,58.2055169 205.062374,59.8551913 C206.373581,61.5048656 208.186105,62.3296903 210.5,62.3296903 Z" id="Combined-Shape" fill="#1C1F33"></path>
            <path d="M259,40 L254.972452,40 L249.844353,61.2486085 L249.750689,61.2486085 L243.966942,40 L240.033058,40 L234.249311,61.2486085 L234.155647,61.2486085 L229.027548,40 L225,40 L232.071625,66 L236.192837,66 L241.953168,45.7884972 L242.046832,45.7884972 L247.807163,66 L251.928375,66 L252.642562,63.3710575 C253.118689,61.6184204 253.707985,59.4517754 254.410468,56.8710575 L256.517906,49.1289425 C257.220389,46.5482246 257.809685,44.3815796 258.285813,42.6289425 L259,40 Z" id="Path" fill="#1C1F33"></path>
        </g>
    </g>
</svg>