<?xml version="1.0" encoding="utf-8"?>
<!-- Generator: Adobe Illustrator 19.2.1, SVG Export Plug-In . SVG Version: 6.00 Build 0)  -->
<svg version="1.1" id="Layer_1" height="18" width="41" xmlns="http://www.w3.org/2000/svg" xmlns:xlink="http://www.w3.org/1999/xlink" x="0px" y="0px"
	 viewBox="0 0 41 18" style="enable-background:new 0 0 41 18;" xml:space="preserve">
<style type="text/css">
	.st0{fill:#CDCCCC;}
	.st1{fill:#FFFFFF;}
</style>
<path class="st0" d="M8.8,0.1C6.9,0.4,5.3,1.3,3.9,2.7c-1.4,1.4-2.3,3.1-2.6,5C0.6,12.5,3.8,17,8.6,17.9C9,18,11.5,18,20.5,18
	c10.8,0,11.4,0,12-0.1c4.7-1,7.8-5.4,7.1-10.2c-0.3-2-1.1-3.6-2.6-5c-1.4-1.4-3.1-2.3-5-2.6C31.1,0,9.8,0,8.8,0.1z"/>
<path class="st1" d="M12.2,2.8c2.3,0.7,3.9,2.3,4.5,4.6c0.1,0.5,0.2,0.8,0.2,1.6c0,0.8,0,1.1-0.2,1.6c-0.6,2.3-2.3,4-4.6,4.7
	c-0.8,0.2-2.3,0.2-3.2,0c-2.3-0.6-4-2.4-4.7-4.7C4,9.7,4,8.2,4.3,7.4C4.9,4.9,7,3,9.6,2.6C10.3,2.5,11.5,2.6,12.2,2.8z"/>
</svg>
