<?xml version="1.0" encoding="utf-8"?>
<!-- Generator: Adobe Illustrator 19.0.1, SVG Export Plug-In . SVG Version: 6.00 Build 0)  -->
<svg version="1.1" id="Layer_1" xmlns="http://www.w3.org/2000/svg" xmlns:xlink="http://www.w3.org/1999/xlink" x="0px" y="0px"
	 viewBox="112.5 193 407.7 407.7" style="enable-background:new 112.5 193 407.7 407.7;" xml:space="preserve">
<style type="text/css">
	.st0{fill:#E01E5A;}
	.st1{fill:#36C5F0;}
	.st2{fill:#2EB67D;}
	.st3{fill:#ECB22E;}
</style>
<g>
	<g>
		<g>
			<path class="st0" d="M205.3,447.5c0,22.3-18,40.3-40.3,40.3s-40.3-18-40.3-40.3c0-22.3,18-40.3,40.3-40.3h40.3V447.5z"/>
			<path class="st0" d="M225.4,447.5c0-22.3,18-40.3,40.3-40.3c22.3,0,40.3,18,40.3,40.3v100.8c0,22.3-18,40.3-40.3,40.3
				c-22.3,0-40.3-18-40.3-40.3V447.5z"/>
		</g>
		<g>
			<path class="st1" d="M265.8,285.6c-22.3,0-40.3-18-40.3-40.3c0-22.3,18-40.3,40.3-40.3c22.3,0,40.3,18,40.3,40.3v40.3H265.8z"/>
			<path class="st1" d="M265.8,306.1c22.3,0,40.3,18,40.3,40.3c0,22.3-18,40.3-40.3,40.3H164.6c-22.3,0-40.3-18-40.3-40.3
				c0-22.3,18-40.3,40.3-40.3H265.8z"/>
		</g>
		<g>
			<path class="st2" d="M427.4,346.4c0-22.3,18-40.3,40.3-40.3s40.3,18,40.3,40.3s-18,40.3-40.3,40.3h-40.3V346.4z"/>
			<path class="st2" d="M407.2,346.4c0,22.3-18,40.3-40.3,40.3s-40.3-18-40.3-40.3V245.3c0-22.3,18-40.3,40.3-40.3
				s40.3,18,40.3,40.3V346.4z"/>
		</g>
		<g>
			<path class="st3" d="M366.9,508c22.3,0,40.3,18,40.3,40.3c0,22.3-18,40.3-40.3,40.3s-40.3-18-40.3-40.3V508H366.9z"/>
			<path class="st3" d="M366.9,487.8c-22.3,0-40.3-18-40.3-40.3c0-22.3,18-40.3,40.3-40.3H468c22.3,0,40.3,18,40.3,40.3
				c0,22.3-18,40.3-40.3,40.3H366.9z"/>
		</g>
	</g>
</g>
</svg>
